<svg id="Layer_1" data-name="Layer 1" xmlns="http://www.w3.org/2000/svg" viewBox="0 0 24 24"><path d="M18.4,5.66a9,9,0,1,0-1.55,13.93A9,9,0,0,0,18.4,5.66Zm.88,2.49V8.08c0,.07.07.18.11.25s-.11-.07-.14-.11Zm-.21.53h0s.07.07.11.07a.52.52,0,0,0,.18.18.41.41,0,0,0,0,.1.91.91,0,0,0-.32,0A.72.72,0,0,1,19.07,8.68Zm-.74-.91,0-.21a.15.15,0,0,0,.11,0l0,0,.1-.07,0,.07,0,0,0,0a.56.56,0,0,0,.1.14,1.9,1.9,0,0,0,.25.35c-.07.07-.11.07-.14.18a.41.41,0,0,0-.28.07,4.58,4.58,0,0,0-.29-.71Zm-2.54,2,2.57-.1a6.3,6.3,0,0,1,.18.84,10.79,10.79,0,0,1,.14,2.61c-.88.17-1.83.31-2.75.42V11.67C15.9,11,15.86,10.41,15.79,9.77Zm-.24-2s.07,0,.1.07.18.23.28.32v.28l.14-.17a.2.2,0,0,0,.22.07s.07,0,.1,0l.07-.11a.44.44,0,0,1,.18.15l.14-.07-.14.14s0,.07,0,.1v0l0,.1.07.07c.1.21.35.28.53.43-.53,0-1,0-1.55.07-.07-.5-.14-.95-.25-1.45ZM14.24,6.5l.07,0-.1.08ZM11.85,5.2c0-.32.07-.64.07-1a.34.34,0,0,0,.17,0c.11.07.25,0,.32.07a.78.78,0,0,0,.28.32l.11.11a.14.14,0,0,0,.14.1,1.28,1.28,0,0,0,.31.11.21.21,0,0,0,.11.21l.07.14c0,.07,0,.17,0,.24H11.81Zm0,1h1.94a1.86,1.86,0,0,1,.21.14l.14-.11L14,6.32a1.23,1.23,0,0,0,.15.22l.1,0,0,0a.23.23,0,0,0,.24.14l.14.07.07-.18,0,.18,0,0a18.05,18.05,0,0,1,.5,2.43c-1.09,0-2.4.07-3.49.07a4.35,4.35,0,0,1,0-.7C11.7,7.8,11.74,7,11.81,6.15Zm-2-1.52a.73.73,0,0,0,.39-.1c.08,0,.15-.12.25-.11h0a.22.22,0,0,0,.14,0h.07l.07-.11s0,0,.07,0,.32,0,.43,0a.34.34,0,0,1,.17,0c0,.45-.07,1-.1,1.4-.71,0-1.45,0-2.15.11L9.59,5ZM8.18,9.81c1,0,2,0,3,0,0,1.13,0,2.75,0,3.88a26.69,26.69,0,0,1-3.49-.22,18.91,18.91,0,0,1,.17-3.69ZM8,9.28a15.29,15.29,0,0,1,.92-3c.49,0,.95-.07,1.44-.07.32,0,.63,0,.92,0-.07,1-.11,2.11-.11,3.17C10.08,9.32,9,9.32,8,9.28Zm0,4.79c1.06.1,2.15.17,3.24.17,0,1,.07,2.15.11,3.17a16.58,16.58,0,0,1-3-.28,12.88,12.88,0,0,1-.56-3.06S7.9,14,8,14.07ZM7.26,5.76c.32-.35.67-.77,1-1.09a6.84,6.84,0,0,1,1.05-.46,1.34,1.34,0,0,0,.18-.07l-.11.18-.31.1L9,4.53l-.14.21s.21.07.21.11a7.69,7.69,0,0,0-.49,1l-1.38.1C7.23,5.83,7.23,5.8,7.26,5.76Zm-.76.1,0,.08H6.38Zm.27.57c.49,0,1-.11,1.55-.14a16.31,16.31,0,0,0-.88,3l-2-.11A9.75,9.75,0,0,1,6.38,7,6.79,6.79,0,0,1,6.77,6.43Zm.39,7A14.8,14.8,0,0,1,4.94,13a10.43,10.43,0,0,1,.35-3.31l2.08.1a15.07,15.07,0,0,0-.21,1.87A13.37,13.37,0,0,0,7.16,13.43ZM5.85,6.54c.07,0,.18,0,.25,0A10.41,10.41,0,0,0,4.87,9.14c-.21,0-.39,0-.6,0A8.59,8.59,0,0,1,5.85,6.54ZM3.74,12A9.45,9.45,0,0,1,4.09,9.6l.64,0a10.73,10.73,0,0,0-.36,3.17,4.86,4.86,0,0,1-.63-.25Zm1,3.83A10.48,10.48,0,0,1,4,13.93l.2,0,.11-.1v0a.26.26,0,0,0,0-.21v-.14h0c0-.07-.07-.11-.07-.18l.25.11A11,11,0,0,0,4.94,16,1,1,0,0,1,4.69,15.86Zm.88.46c-.07-.21-.14-.46-.21-.67a11.26,11.26,0,0,1-.42-2.11A15.76,15.76,0,0,0,7.16,14a14.26,14.26,0,0,0,.53,3A10.69,10.69,0,0,1,5.57,16.32Zm.43.81s0,0,0,.07A.94.94,0,0,0,5.85,17L6,17.1Zm.17.46.11.1a.36.36,0,0,0,.14.18s0,0,0,.11C6.35,17.83,6.24,17.69,6.17,17.59Zm1.55,1.48c-.21-.11-.42-.29-.63-.43a.27.27,0,0,0,.07-.17V18.4h0c0-.07,0-.18-.1-.25a.49.49,0,0,0,0-.21l.07,0C7,17.8,7,17.73,7,17.69l-.07-.17c-.07,0-.17-.07-.25,0a.42.42,0,0,0-.17-.18s-.14-.14-.18-.14a12.12,12.12,0,0,0,1.52.39,11,11,0,0,0,.74,1.69h0A6.39,6.39,0,0,1,7.72,19.07Zm1.41,0a9.45,9.45,0,0,1-.63-1.37,24.9,24.9,0,0,0,2.85.24c0,.6.07,1.17.11,1.73a20.59,20.59,0,0,1-2.08-.18A2.32,2.32,0,0,1,9.13,19Zm2.36,1.23A7.13,7.13,0,0,1,10,20.05a10.52,10.52,0,0,0,1.51.11Zm.18-10.45,3.56-.07a23,23,0,0,1,.14,3.8c-1.23.11-2.47.14-3.67.14,0-1.06,0-2.08,0-3.06Zm.14,7c0-.85-.07-1.76-.11-2.61,1.2,0,2.44,0,3.63-.14A22.39,22.39,0,0,1,15,17.17a23.33,23.33,0,0,1-3.14.21A2.35,2.35,0,0,0,11.81,16.85Zm2,3.24a7.9,7.9,0,0,1-1.8.21v-.14a16,16,0,0,0,1.83-.11S13.82,20.09,13.82,20.09Zm.91-2a7.07,7.07,0,0,1-.56,1.47,15,15,0,0,1-2.22.14c0-.52-.07-1.12-.1-1.72a21.15,21.15,0,0,0,3-.21A1.24,1.24,0,0,1,14.73,18.05Zm2.15.66-.56.36c-.49.14-1,.24-1.48.35a9.28,9.28,0,0,0,.6-1.8,17.91,17.91,0,0,0,2.33-.49A8.44,8.44,0,0,1,16.88,18.71Zm.6-2.07c-.63.17-1.3.31-1.93.42a21.82,21.82,0,0,0,.38-3c.92-.1,1.84-.21,2.72-.38A10.22,10.22,0,0,1,18,16.5C17.84,16.53,17.66,16.6,17.48,16.64Zm.6,1a4.55,4.55,0,0,0,.32-.78,2.93,2.93,0,0,0,.39-.14A5.65,5.65,0,0,1,18.08,17.66Zm1.73-2.82c-.14.39-.35.81-.49,1.13l-.67.28a11.84,11.84,0,0,0,.52-2.75c.18,0,.39-.1.57-.14a2.54,2.54,0,0,1,0,1C19.74,14.56,19.84,14.67,19.81,14.84Zm.1-3.27c0,.07,0,.07-.07.14l-.07,0v0c-.07.07-.07.25-.07.35a.52.52,0,0,0,0,.39c-.07.07-.07.18-.1.28s-.11,0-.14,0l-.25.07A11.85,11.85,0,0,0,19,10,.11.11,0,0,1,19,10c0,.11.07.18.11.29a.45.45,0,0,0,.28.28v.17l.11.07h0c0,.11.18.22.28.15s0,0,0,.1a.75.75,0,0,1,0,.21A1.13,1.13,0,0,0,19.91,11.57Zm-.17-1.23s0-.07-.07-.11,0-.46-.07-.63l-.18.07.14-.07h.21l.18.17a.77.77,0,0,1,.07.29l-.11.1,0,0a.23.23,0,0,0,0,.11A.14.14,0,0,0,19.74,10.34Z"/><path d="M9.16,8.51c-.08,0,0,.14-.08.26s.25.09.28,0,.25,0,.2-.12A.27.27,0,0,0,9.16,8.51Z" /><path d="M9.16,8.37c.06-.11-.48-.1-.26,0C9,8.54,9.07,8.54,9.16,8.37Z" /><path d="M8.66,8.28c0,.05.08,0,.12,0s0-.06,0-.07S8.65,8.23,8.66,8.28Z" /><path d="M8.47,8.14s0,.09,0,.09S8.52,8.07,8.47,8.14Z" /></svg>