<svg id="Layer_1" data-name="Layer 1" xmlns="http://www.w3.org/2000/svg" viewBox="0 0 24 24"><g id="Component_4_1" data-name="Component 4 1"><g id="Component_3_1" data-name="Component 3 1"><path id="Path_62" data-name="Path 62" d="M4.54,3c2,.06,4,.09,6,.1V8.78c2.78,2.48,5.69,4.88,8.4,7.39,0,.09,0,.2.08.24s.29.28.27.45,0,.22.12.28,0,0,.06,0h0a.13.13,0,0,1,.07.06.16.16,0,0,1,.13.06c.07,0,.22.2.1.19a.34.34,0,0,0-.09.19l-.09,0s0,.07-.1.08a.11.11,0,0,0-.12.13c0,.09,0,.1-.05.11s-.18.11-.06.18,0,0,0,0,0,.05,0,.11.05.13,0,.2-.08.09,0,.13-.06.48-.28.51c-.05,0,0,.05,0,.07s-.11.16,0,.16,0,.05,0,.07-.07.43.1.37c.05.09.17,0,.23.05s0,.1,0,.06,0,.09,0,.12-.12.18-.08.3c-1.32.28-2.8.42-4.17.64,0-.09,0-.32-.16-.28s.12-.06.09,0,.06.2.1.13,0-.08,0-.11h0s-.09-.06-.1-.11a.1.1,0,0,0-.1.12s0-.2,0-.19h0c.05,0,0,0,0,0s0,0,0,0,0,0,0,0-.05-.05,0,0h0s0-.08-.05-.1,0-.07,0-.06a.94.94,0,0,0-.25-.68h0a.8.8,0,0,0-.31-.32c-.06-.13-.21-.11-.26-.23h0s-.08,0-.09-.07h0S14,19,13.93,19s0,0,0,0,0,0,0,0v0s0,0,0,0,0,0,0,.05h0s.07,0,.08,0c-.14,0-.24-.16-.34-.25h0s0,0,0,0,0,0,0-.06,0,0,0,0-.17-.08-.09,0h0s0,0,0,0,0,0,0,0,0,0,0,0v0s0,0,0,0h0s-.09,0-.06,0,0,0,0,0h0v0h0v0h0s0,0,0,.06h0s0,0,0,0-.27,0-.17-.16c.1-.31-.4-.62-.64-.38-.13-.12-.32-.06-.46-.16h0s-.1-.11-.17-.12h0c0,.06,0-.06,0,0s-.08-.17-.06-.15-.21-.12-.27-.21,0-.05-.08,0a.41.41,0,0,0-.32-.07c-.06.07-.16,0-.24,0s0,0-.06,0c-.21-.21-.78,0-.93-.14a.26.26,0,0,0-.26-.16c0-.08.11-.26,0-.36s.08-.19,0-.25,0,0-.06,0h0V16.5c0-.11.12-.38,0-.42s-.12-.07-.13,0-.27-.14-.16-.31v0s0,0,0,0,0,0,0,0,0-.09-.06-.06a.12.12,0,0,0-.07-.15.07.07,0,0,1-.07,0c-.17,0-.22-.36-.36-.34s-.2-.09-.19-.23-.22-.18-.24-.31,0-.2-.15-.2,0-.08-.07-.11c0-.21-.26-.22-.36-.37,0,0,0,0-.06,0v-.1c-.06,0,0-.09,0-.11a.85.85,0,0,0,0-.17s-.07-.08,0-.06,0,0,0,0-.11,0,0-.08v0s0-.06,0-.05c.13.16.19-.11.19-.22s0-.11,0-.11,0,0,0,0,0-.06,0-.06c-.11-.32-.16-.19-.41-.2s-.23-.27-.36-.32,0-.05,0-.05,0-.07,0-.06c-.1-.14.06-.55-.15-.61a.31.31,0,0,1,0-.19v0h0v-.32s0,0,.05-.05,0,0,.06,0h0c.1,0,.06.13.09.15s0,0,0,0,0,.11,0,.1v0s0,0,0,0,0,0,.14.13.09,0,.06.06.05-.06,0,0h.07s0,.06,0,0h0s0,0,0,0,.07.09,0,0h0c.06-.05,0,0,.06.06a.12.12,0,0,0,.13,0s0,0,0,0,0,0,0,0-.07,0-.08,0,0-.06-.09-.07a.23.23,0,0,0,0-.11h0c-.05-.06,0-.15-.05-.22s0-.09-.06-.06-.07,0,0,0-.06,0,0,0,.06,0,0,0,0,0,0,0h0A.15.15,0,0,0,7.06,11h0v0s0,0,0,0h0a.05.05,0,0,0,0-.09s0-.09,0-.08-.06,0,0,0,0,0,0,0H7s-.05,0-.05-.07,0,0,0,0,.07,0,0-.09,0,0,.07,0,.07,0,.09-.08a.11.11,0,0,1,.15.05c.2-.1.4,0,.61,0s.15,0,0,0,.06,0,.07-.06,0,0,.07,0,.12,0,.08,0-.12,0,0,.09,0-.14.06-.07,0,.07.06.09,0,0,0,0,0-.07,0,0,0,0,0,0,0,0,.1,0a.13.13,0,0,1-.08,0c0,.06,0,0-.09,0s0,0-.07-.07h0s-.1,0-.11,0-.06,0-.07,0-.18.15-.15,0a.12.12,0,0,1,.11,0c0-.05.08-.16.07-.19s-.14.26-.29.19-.08.06-.11,0c.13-.08-.13,0-.12-.08s0,0,0,0-.15,0-.09-.05,0,0,0-.08-.14.35-.27.24,0,0,0,0-.11-.11-.08-.14,0,0,0-.06,0,0,0-.09,0,0,0-.05a.1.1,0,0,1,0,.05s0,.06,0,.07a.51.51,0,0,1,.1.21c-.06,0-.12-.16-.22-.16s-.07.09-.07.05-.09,0,0,0,0,.11,0,.16.09.06,0,.07-.09,0,0,.07,0,0,0,.07,0,.05,0,.06,0-.11-.06,0,.1.12,0,.1,0,0,0,0h0s0,0-.07,0-.11,0-.22-.11a.32.32,0,0,0-.24-.18s.07,0,.05,0,0,0,0,0,0,0,0,0,0,0,0,0,.06-.06,0,0,0,0,0,0h0s0,.05,0,0v0s0,0,0,0-.1.06,0,.08H6c0-.07.16-.27.09-.36s0-.05,0-.08v0s.06.09.08.09a.16.16,0,0,0,0,.07s.15.2.09.11h0c0-.06-.08-.12-.07-.19s0,0,0,0,0,0-.06,0,0-.19-.12-.14,0,0,0,0,0,0,0,0-.13-.32-.24-.36l0,0-.09-.05s0,0,0,0,0,0,0-.05a.39.39,0,0,1,0-.09h0a.49.49,0,0,0-.18-.22h0a.13.13,0,0,0-.05-.07l0,0s0,0,0,0h0a1,1,0,0,0-.18-.22c0-.12.12-.27,0-.42,0,0,0-.08-.05-.09s0-.05,0-.05H5V8.29H5v0H5V8.19s0,0,0-.08,0,0,0,0V8H5c.12-.24,0-.5,0-.76-.1,0-.06-.13-.13-.17s-.21-.17-.22-.31-.41-.24-.36-.46a.6.6,0,0,1,.07-.58s0,0,0,0h0s0,0,0-.05h0c-.1.15.06-.11.09-.17s-.12.09,0,.14v-.1s0,0,0-.07h0s0-.09.07-.07,0,0,0,0,.06-.12,0-.07-.08.12-.14.15.26-.46.11-.56h0a3,3,0,0,0,.09-.95h0c-.13-.1,0-.4-.24-.46h0a1.38,1.38,0,0,0,.08-.29h0a0,0,0,0,0,0,0S4.53,3,4.54,3Z" style="fill:#010101"/></g></g></svg>